<?xml version="1.0" standalone="no"?>
<!DOCTYPE svg PUBLIC "-//W3C//DTD SVG 20010904//EN"
 "http://www.w3.org/TR/2001/REC-SVG-20010904/DTD/svg10.dtd">
<svg version="1.0" xmlns="http://www.w3.org/2000/svg"
 width="780.000000pt" height="780.000000pt" viewBox="0 0 780.000000 780.000000"
 preserveAspectRatio="xMidYMid meet">
<metadata>
Created by potrace 1.11, written by Peter Selinger 2001-2013
</metadata>
<g transform="translate(0.000000,780.000000) scale(0.100000,-0.100000)"
fill="#000000" stroke="none">
<path d="M3205 7269 c-505 -52 -993 -215 -1421 -475 -238 -144 -421 -290 -639
-509 -537 -538 -853 -1180 -962 -1955 -25 -178 -25 -684 0 -855 64 -436 169
-771 356 -1130 93 -179 221 -380 324 -509 l24 -29 44 69 c25 38 62 97 83 131
l38 61 -85 129 c-259 391 -416 800 -488 1273 -21 137 -24 189 -23 440 0 238 4
307 21 420 85 544 277 1005 593 1425 517 688 1275 1121 2130 1219 155 18 477
21 631 6 703 -70 1346 -368 1853 -860 557 -541 880 -1232 937 -2008 6 -87 13
-158 14 -160 2 -2 50 34 107 80 58 46 119 94 137 108 l33 25 -17 140 c-131
1088 -773 2037 -1740 2568 -381 210 -815 345 -1261 392 -150 16 -551 18 -689
4z"/>
<path d="M4835 6031 c-238 -61 -443 -156 -669 -309 -182 -123 -423 -305 -569
-432 -64 -55 -117 -99 -117 -97 0 3 43 93 95 202 55 113 95 210 95 227 0 76
-103 113 -310 111 -306 -3 -529 -83 -874 -314 -422 -282 -932 -736 -1187
-1056 -32 -40 -108 -143 -170 -230 -91 -127 -113 -164 -113 -191 0 -68 81
-103 133 -58 9 7 219 189 467 403 507 440 640 551 834 697 233 175 416 285
502 301 l37 7 -138 -308 c-212 -475 -233 -520 -382 -814 -163 -324 -316 -594
-616 -1085 -120 -198 -272 -450 -338 -560 -201 -339 -556 -904 -816 -1297 -82
-124 -92 -155 -64 -195 86 -123 377 129 865 747 216 275 352 490 770 1220 705
1233 956 1578 1400 1933 264 211 705 487 779 487 26 0 69 -53 77 -96 9 -48 -2
-123 -29 -197 -13 -34 -108 -219 -212 -412 -392 -727 -585 -1132 -684 -1435
-194 -598 -103 -1004 244 -1095 86 -22 270 -20 398 5 656 127 1413 522 2372
1240 371 277 607 476 863 727 144 141 172 184 150 231 -21 43 -77 42 -153 -3
-107 -65 -349 -247 -706 -531 -703 -559 -1290 -916 -1864 -1134 -358 -136
-702 -206 -833 -171 -57 16 -116 71 -139 129 -29 76 -24 239 11 377 93 366
323 849 890 1870 384 690 386 695 386 843 0 102 -22 165 -79 221 -33 34 -60
51 -93 59 -66 17 -88 15 -213 -17z"/>
<path d="M6710 3306 l-166 -124 -28 -104 c-89 -326 -267 -693 -474 -982 -307
-425 -751 -789 -1232 -1007 -759 -343 -1627 -366 -2395 -62 -300 119 -584 284
-820 477 -37 31 -72 53 -76 49 -18 -20 -166 -199 -172 -210 -12 -19 222 -197
417 -318 435 -267 901 -426 1431 -486 164 -19 550 -16 725 5 791 95 1498 443
2044 1006 496 513 812 1151 920 1858 2 12 0 22 -3 22 -3 -1 -80 -56 -171 -124z"/>
</g>
</svg>
